<svg id="svg" version="1.1" xmlns="http://www.w3.org/2000/svg" xmlns:xlink="http://www.w3.org/1999/xlink" width="400" height="400" viewBox="0, 0, 400,400"><g id="svgg"><path id="path0" d="M103.400 62.174 C 99.016 62.780,98.389 62.958,95.600 64.392 C 94.390 65.014,92.633 65.749,91.695 66.026 C 90.758 66.303,89.791 66.770,89.546 67.065 C 89.302 67.359,88.899 67.601,88.651 67.602 C 88.403 67.603,87.480 68.220,86.600 68.974 C 85.720 69.728,84.370 70.886,83.600 71.547 C 80.312 74.373,77.200 77.470,77.200 77.918 C 77.200 78.183,77.020 78.400,76.800 78.400 C 76.580 78.400,76.400 78.600,76.400 78.844 C 76.400 79.088,76.031 79.673,75.579 80.144 C 75.127 80.615,73.750 82.890,72.518 85.200 C 70.497 88.989,69.722 91.126,68.312 96.800 C 67.244 101.101,66.998 279.182,68.056 282.800 C 69.562 287.951,70.164 289.571,71.696 292.600 C 77.620 304.310,86.502 312.018,99.200 316.468 L 103.000 317.800 198.589 317.904 C 291.693 318.005,294.273 317.988,297.818 317.237 C 302.750 316.191,307.359 314.352,310.996 311.977 C 312.662 310.890,314.184 310.000,314.379 310.000 C 314.574 310.000,314.793 309.865,314.867 309.700 C 314.940 309.535,316.076 308.500,317.392 307.400 C 323.608 302.202,328.323 295.066,331.004 286.800 C 332.411 282.462,332.510 281.813,332.748 275.400 C 333.043 267.430,332.595 100.064,332.272 98.000 C 331.552 93.391,328.186 84.364,326.754 83.200 C 326.619 83.090,326.382 82.598,326.229 82.106 C 324.864 77.733,311.727 66.672,306.105 65.163 C 305.173 64.912,304.496 64.569,304.600 64.400 C 304.705 64.230,304.388 63.992,303.895 63.869 C 303.403 63.747,301.560 63.241,299.800 62.744 L 296.600 61.841 201.800 61.758 C 128.014 61.694,106.202 61.786,103.400 62.174 M204.031 80.228 C 205.214 81.299,205.198 95.943,204.011 97.889 C 203.060 99.448,201.466 99.953,200.034 99.149 C 198.150 98.092,197.995 97.236,198.102 88.411 L 198.200 80.223 199.200 79.696 C 200.461 79.031,203.020 79.313,204.031 80.228 M225.137 93.612 C 225.693 94.603,225.254 96.247,223.646 99.200 C 222.922 100.529,220.400 100.191,220.400 98.764 C 220.400 94.803,223.757 91.153,225.137 93.612 M181.964 95.000 C 183.425 98.029,183.357 100.200,181.800 100.200 C 180.452 100.200,179.660 98.981,178.732 95.478 C 177.824 92.053,180.362 91.677,181.964 95.000 M158.054 95.191 C 158.772 95.846,159.728 97.099,160.179 97.976 C 160.631 98.853,162.248 101.152,163.774 103.085 C 167.514 107.824,167.778 108.328,167.442 110.117 C 166.713 114.003,162.278 113.363,159.917 109.031 C 159.632 108.509,158.230 106.601,156.800 104.789 C 155.370 102.978,153.857 101.051,153.437 100.508 C 150.333 96.485,154.375 91.830,158.054 95.191 M249.818 94.982 C 251.373 96.536,250.311 101.011,247.964 102.800 C 247.820 102.910,247.270 103.630,246.743 104.400 C 240.957 112.847,238.924 114.289,236.636 111.569 C 235.266 109.941,235.705 106.642,237.443 105.512 C 237.687 105.354,239.436 103.076,241.330 100.451 C 246.137 93.790,247.651 92.815,249.818 94.982 M211.200 109.693 C 214.413 110.272,216.802 110.986,219.124 112.061 C 220.952 112.907,222.572 113.603,222.724 113.608 C 223.558 113.630,229.488 118.078,233.400 121.616 C 240.037 127.617,244.899 137.206,246.069 146.600 C 246.773 152.247,245.784 151.601,253.708 151.596 C 264.079 151.590,270.590 152.475,274.600 154.436 C 279.605 156.882,284.380 160.314,286.656 163.101 C 287.505 164.140,288.470 165.269,288.800 165.609 C 290.407 167.264,293.925 174.559,294.775 178.000 C 297.206 187.843,294.465 201.096,288.772 207.019 C 288.127 207.690,287.600 208.435,287.600 208.677 C 287.600 209.484,282.013 214.177,278.511 216.311 C 274.462 218.777,269.883 220.293,264.898 220.818 C 258.567 221.484,143.160 221.301,139.400 220.618 C 125.112 218.027,114.133 206.913,111.522 192.400 C 111.054 189.796,111.325 179.435,111.899 178.000 C 112.119 177.450,112.619 176.010,113.010 174.800 C 115.165 168.135,125.516 156.000,129.047 156.000 C 129.206 156.000,129.621 155.748,129.969 155.440 C 132.526 153.172,142.367 151.374,150.292 151.728 C 157.444 152.047,157.994 151.843,158.017 148.861 C 158.053 144.209,161.861 132.389,164.096 129.990 C 164.483 129.574,164.800 129.046,164.800 128.817 C 164.800 128.588,164.939 128.400,165.109 128.400 C 165.279 128.400,165.774 127.727,166.209 126.905 C 168.864 121.888,183.530 111.200,187.761 111.200 C 188.086 111.200,188.448 111.046,188.565 110.857 C 188.805 110.468,191.743 109.828,197.000 109.020 C 201.207 108.373,204.830 108.545,211.200 109.693 M148.361 120.948 C 151.292 122.677,152.246 124.166,151.055 125.154 C 150.343 125.745,147.025 124.705,145.545 123.427 C 142.198 120.536,144.390 118.606,148.361 120.948 M259.497 121.200 C 259.598 122.234,259.248 122.552,255.284 125.025 C 252.677 126.650,250.684 124.550,252.900 122.512 C 255.617 120.014,259.310 119.279,259.497 121.200 M135.200 135.792 C 138.170 136.781,141.320 137.769,142.200 137.988 C 145.727 138.867,147.214 142.056,145.130 144.274 C 143.949 145.531,143.459 145.477,136.800 143.363 C 125.680 139.833,125.467 139.708,125.467 136.739 C 125.467 133.570,127.832 133.339,135.200 135.792 M277.895 134.611 C 281.099 136.856,279.278 139.552,273.310 141.398 C 270.720 142.199,267.970 143.102,267.200 143.405 C 260.768 145.931,257.600 145.465,257.600 141.993 C 257.600 139.851,259.164 138.743,264.000 137.458 C 266.090 136.903,269.330 135.918,271.200 135.269 C 275.123 133.907,276.672 133.755,277.895 134.611 M174.988 227.893 C 177.785 229.959,177.395 233.047,173.867 236.789 C 172.720 238.005,169.297 241.908,166.260 245.461 C 160.862 251.778,160.134 252.383,157.919 252.395 C 154.726 252.411,152.557 248.752,154.054 245.874 C 154.524 244.971,157.783 240.907,158.604 240.200 C 158.860 239.980,159.940 238.720,161.005 237.400 C 162.070 236.080,163.045 234.910,163.171 234.800 C 163.297 234.690,164.894 232.946,166.720 230.925 C 168.546 228.904,170.436 227.167,170.920 227.066 C 172.283 226.780,173.937 227.116,174.988 227.893 M209.852 240.080 C 210.989 241.107,211.316 243.347,210.585 245.098 C 209.959 246.595,209.300 247.407,204.104 253.079 C 202.250 255.102,199.568 258.208,198.143 259.981 C 194.555 264.446,191.642 265.607,189.083 263.594 C 186.575 261.621,186.934 258.690,190.107 255.213 C 191.038 254.193,192.970 252.033,194.400 250.411 C 195.830 248.790,197.181 247.270,197.403 247.032 C 197.624 246.794,198.254 246.043,198.803 245.361 C 203.326 239.744,203.491 239.582,205.312 238.960 C 206.799 238.452,208.518 238.876,209.852 240.080 " stroke="none" fill="#62aefb" fill-rule="evenodd"></path><path id="path1" d="M0.000 200.000 L 0.000 400.000 200.000 400.000 L 400.000 400.000 400.000 200.000 L 400.000 0.000 200.000 0.000 L 0.000 0.000 0.000 200.000 M295.894 60.839 C 296.942 61.080,298.970 61.544,300.400 61.869 C 303.503 62.575,307.702 64.116,309.600 65.245 C 309.930 65.441,310.611 65.779,311.113 65.996 C 314.226 67.340,323.804 75.836,325.877 79.093 C 326.264 79.702,326.676 80.290,326.791 80.400 C 326.906 80.510,327.311 81.230,327.691 82.000 C 328.071 82.770,328.836 84.170,329.391 85.111 C 329.946 86.052,330.400 87.166,330.400 87.587 C 330.400 88.008,330.553 88.447,330.740 88.563 C 331.271 88.891,332.726 93.884,333.258 97.200 C 333.974 101.663,333.996 278.225,333.281 282.200 C 332.696 285.449,332.199 287.173,331.206 289.400 C 330.813 290.280,330.257 291.630,329.971 292.400 C 329.375 294.003,326.786 298.307,325.126 300.458 C 324.507 301.259,324.000 302.009,324.000 302.124 C 324.000 302.399,316.346 310.000,316.069 310.000 C 315.191 310.000,309.513 314.180,309.886 314.552 C 310.022 314.689,309.697 314.800,309.163 314.800 C 308.630 314.800,307.357 315.245,306.334 315.790 C 305.311 316.334,303.603 316.968,302.537 317.197 C 301.472 317.426,300.240 317.777,299.800 317.976 C 299.360 318.175,297.110 318.495,294.800 318.687 C 288.909 319.175,106.956 319.012,103.400 318.516 C 100.452 318.104,95.074 316.243,92.767 314.836 C 92.015 314.378,91.085 314.002,90.700 314.001 C 90.315 314.001,90.000 313.852,90.000 313.671 C 90.000 313.490,89.235 312.938,88.300 312.444 C 86.225 311.348,84.676 310.240,82.645 308.400 C 81.795 307.630,80.942 307.045,80.750 307.100 C 80.557 307.155,80.400 307.037,80.400 306.838 C 80.400 306.638,79.500 305.541,78.400 304.400 C 77.300 303.259,76.400 302.233,76.400 302.120 C 76.400 302.007,75.905 301.259,75.300 300.458 C 74.695 299.656,73.958 298.570,73.662 298.045 C 73.367 297.520,72.763 296.440,72.320 295.645 C 71.877 294.850,71.339 293.983,71.124 293.719 C 70.580 293.049,68.465 287.452,67.753 284.800 C 67.428 283.590,66.993 282.069,66.786 281.421 C 65.666 277.911,66.469 96.171,67.609 95.031 C 67.824 94.816,68.000 94.247,68.000 93.768 C 68.000 93.288,68.450 91.700,69.000 90.238 C 69.550 88.777,70.000 87.258,70.000 86.861 C 70.000 86.465,70.630 85.255,71.400 84.172 C 72.170 83.089,72.800 82.009,72.800 81.773 C 72.800 81.537,73.356 80.727,74.035 79.972 C 74.714 79.217,75.535 78.092,75.860 77.471 C 76.996 75.300,86.667 66.800,88.001 66.800 C 88.221 66.800,88.400 66.641,88.400 66.447 C 88.400 66.252,88.715 65.988,89.100 65.858 C 89.485 65.729,90.070 65.464,90.400 65.270 C 90.730 65.076,91.720 64.601,92.600 64.214 C 93.480 63.828,94.546 63.331,94.968 63.110 C 96.136 62.499,101.874 61.200,103.402 61.200 C 104.145 61.200,104.864 61.020,105.000 60.800 C 105.363 60.212,293.340 60.251,295.894 60.839 M200.073 81.400 C 199.822 81.950,199.748 82.400,199.909 82.400 C 200.069 82.400,200.200 85.490,200.200 89.266 C 200.200 96.228,200.399 97.136,201.654 95.895 C 201.954 95.598,202.535 95.228,202.945 95.073 C 203.749 94.768,203.611 91.915,202.711 90.235 C 202.484 89.810,202.389 88.244,202.499 86.717 C 202.655 84.539,202.540 83.659,201.948 82.498 C 201.049 80.734,201.055 80.800,201.800 80.800 C 202.173 80.800,202.400 81.178,202.400 81.800 C 202.400 82.350,202.550 82.800,202.733 82.800 C 203.405 82.800,203.536 82.297,203.109 81.360 C 202.496 80.015,200.693 80.039,200.073 81.400 M154.281 96.253 C 153.766 96.767,153.991 97.200,154.772 97.200 C 155.241 97.200,155.595 97.521,155.672 98.016 C 155.848 99.141,156.572 99.198,156.728 98.100 C 156.798 97.605,157.059 97.200,157.308 97.200 C 157.590 97.200,157.617 97.066,157.380 96.842 C 156.845 96.339,154.618 95.915,154.281 96.253 M247.193 96.658 C 246.644 96.807,246.119 97.728,245.459 99.700 C 245.330 100.085,244.953 100.400,244.620 100.400 C 244.287 100.400,243.892 100.895,243.741 101.500 C 243.266 103.408,241.541 105.273,240.972 104.494 C 240.562 103.933,240.460 104.018,240.217 105.123 C 240.062 105.828,239.682 106.400,239.368 106.400 C 238.985 106.400,238.800 106.857,238.800 107.800 C 238.800 108.570,238.800 109.335,238.800 109.500 C 238.800 110.361,239.819 109.638,239.927 108.700 C 240.016 107.923,240.280 107.600,240.827 107.600 C 241.385 107.600,241.600 107.322,241.600 106.600 C 241.600 105.867,241.813 105.600,242.400 105.600 C 242.840 105.600,243.200 105.349,243.200 105.043 C 243.200 104.736,243.470 104.382,243.800 104.255 C 244.130 104.129,244.400 103.659,244.400 103.213 C 244.400 102.317,245.017 102.111,245.335 102.900 C 245.458 103.203,245.549 103.130,245.568 102.712 C 245.605 101.921,247.153 98.795,247.802 98.200 C 249.509 96.638,249.291 96.088,247.193 96.658 M157.295 100.428 C 157.674 100.963,158.258 101.985,158.592 102.700 C 161.131 108.128,162.400 110.148,162.400 108.760 C 162.400 108.430,162.200 107.960,161.955 107.715 C 161.322 107.082,161.853 106.436,162.800 106.684 C 163.700 106.919,163.783 106.689,163.194 105.589 C 162.958 105.147,162.539 104.925,162.194 105.058 C 161.811 105.205,161.600 105.042,161.600 104.600 C 161.600 104.223,161.150 103.561,160.600 103.129 C 159.940 102.610,159.600 101.944,159.600 101.171 C 159.600 100.504,159.385 99.998,159.100 99.995 C 158.825 99.992,158.152 99.869,157.603 99.723 C 156.618 99.459,156.614 99.467,157.295 100.428 M163.680 108.480 C 163.027 109.133,163.077 109.600,163.800 109.600 C 164.133 109.600,164.400 109.244,164.400 108.800 C 164.400 107.868,164.326 107.834,163.680 108.480 M196.600 109.944 C 195.397 110.109,197.478 110.224,201.817 110.232 C 208.986 110.246,214.329 111.151,215.245 112.506 C 215.379 112.705,215.559 112.823,215.645 112.767 C 216.169 112.425,219.242 113.325,219.678 113.947 C 219.965 114.357,220.792 114.823,221.515 114.981 C 222.239 115.140,223.589 115.845,224.515 116.547 C 225.442 117.249,227.055 118.320,228.100 118.928 C 229.404 119.687,230.000 120.295,230.000 120.866 C 230.000 121.597,230.082 121.631,230.675 121.149 C 231.271 120.664,231.317 120.688,231.065 121.358 C 230.722 122.272,231.786 123.600,232.862 123.600 C 233.268 123.600,233.600 123.780,233.600 124.000 C 233.600 124.220,233.825 124.408,234.100 124.417 C 234.750 124.439,236.400 127.030,236.400 128.028 C 236.400 128.452,236.580 128.800,236.800 128.800 C 237.020 128.800,237.155 128.935,237.100 129.100 C 237.045 129.265,237.107 129.400,237.239 129.400 C 238.488 129.400,242.647 137.361,242.242 138.976 C 242.008 139.907,242.815 141.052,243.337 140.530 C 243.482 140.385,243.600 141.176,243.600 142.288 C 243.600 143.399,243.875 144.824,244.211 145.454 C 244.560 146.108,244.796 147.459,244.762 148.600 C 244.685 151.124,245.311 152.717,246.486 152.989 C 247.251 153.167,261.866 153.596,266.365 153.573 C 268.047 153.565,271.147 154.543,273.800 155.920 C 274.900 156.491,275.883 156.910,275.984 156.850 C 276.086 156.790,276.298 157.069,276.456 157.470 C 276.614 157.872,276.756 157.992,276.772 157.737 C 276.787 157.481,277.145 157.365,277.572 157.477 C 278.064 157.605,278.260 157.900,278.112 158.286 C 277.929 158.763,278.074 158.831,278.790 158.603 C 279.381 158.416,279.610 158.460,279.443 158.730 C 279.139 159.223,280.692 160.400,281.646 160.400 C 282.407 160.400,283.070 161.710,282.418 161.927 C 281.990 162.070,284.547 164.000,285.165 164.000 C 285.346 164.000,285.997 164.765,286.613 165.700 C 287.228 166.635,288.066 167.638,288.474 167.928 C 289.154 168.413,290.971 171.889,292.567 175.761 C 292.921 176.620,293.298 177.236,293.404 177.129 C 293.706 176.828,292.371 173.195,291.225 171.200 C 290.657 170.210,289.924 168.877,289.596 168.238 C 288.065 165.255,280.231 158.246,276.350 156.389 C 274.948 155.717,273.487 154.995,273.105 154.784 C 272.723 154.573,272.183 154.399,271.905 154.398 C 271.627 154.396,270.860 154.094,270.200 153.726 C 269.181 153.157,267.315 153.031,257.800 152.889 C 245.358 152.702,245.600 152.760,245.600 149.971 C 245.600 147.281,244.274 140.719,243.536 139.756 C 243.349 139.513,242.862 138.342,242.453 137.155 C 236.395 119.546,215.787 107.316,196.600 109.944 M191.600 110.804 C 183.337 112.647,172.026 120.245,167.396 127.064 C 166.524 128.349,165.682 129.495,165.524 129.612 C 165.023 129.983,162.155 135.710,161.246 138.153 C 159.833 141.956,160.568 141.335,162.256 137.300 C 163.383 134.607,164.122 133.228,164.359 133.375 C 164.494 133.458,165.125 132.454,165.762 131.143 C 166.555 129.509,167.097 128.828,167.486 128.978 C 167.900 129.136,167.985 128.982,167.802 128.405 C 167.529 127.547,168.675 125.634,169.473 125.613 C 169.733 125.606,170.054 125.258,170.187 124.841 C 170.344 124.348,170.684 124.149,171.159 124.273 C 171.638 124.399,172.185 124.074,172.741 123.332 C 173.209 122.710,173.742 122.016,173.926 121.791 C 174.110 121.567,174.194 121.183,174.113 120.939 C 174.032 120.695,174.421 120.381,174.978 120.241 C 175.534 120.102,176.282 119.542,176.639 118.997 C 176.996 118.452,177.444 118.104,177.635 118.222 C 178.122 118.523,179.598 117.674,179.611 117.086 C 179.623 116.545,182.836 114.800,183.819 114.800 C 184.165 114.800,184.345 114.635,184.220 114.433 C 184.095 114.230,184.569 113.939,185.274 113.784 C 185.978 113.629,186.812 113.245,187.127 112.930 C 187.502 112.555,188.096 112.445,188.850 112.611 C 189.694 112.796,190.065 112.696,190.243 112.232 C 190.376 111.884,190.806 111.600,191.197 111.600 C 191.588 111.600,192.514 111.337,193.254 111.016 C 194.732 110.374,193.968 110.276,191.600 110.804 M196.251 120.824 C 193.304 121.166,192.393 121.450,188.482 123.245 C 187.097 123.880,185.792 124.400,185.582 124.400 C 185.372 124.400,185.200 124.569,185.200 124.775 C 185.200 124.981,184.122 125.836,182.805 126.675 C 181.488 127.514,180.305 128.517,180.177 128.904 C 180.048 129.292,179.429 129.875,178.800 130.200 C 178.171 130.525,177.542 131.153,177.401 131.596 C 177.261 132.038,176.997 132.400,176.815 132.400 C 176.323 132.400,174.288 135.711,172.214 139.886 C 170.067 144.206,169.456 148.391,169.674 157.268 C 169.742 160.055,169.679 162.454,169.534 162.599 C 169.389 162.744,163.090 162.894,155.535 162.931 L 141.800 163.000 138.600 164.151 C 135.534 165.253,132.537 167.053,130.400 169.075 C 129.850 169.595,129.040 170.332,128.600 170.711 C 123.077 175.477,120.505 190.557,124.460 194.980 C 124.647 195.189,124.800 195.731,124.800 196.183 C 124.800 199.360,131.044 205.248,137.600 208.255 C 138.370 208.609,139.360 209.101,139.800 209.349 C 140.884 209.960,255.753 210.214,262.400 209.620 C 267.005 209.208,270.135 208.353,272.486 206.864 C 274.531 205.570,279.478 201.077,280.045 200.000 C 280.334 199.450,280.875 198.547,281.246 197.994 C 284.622 192.961,285.264 182.935,282.560 177.468 C 282.252 176.845,282.000 176.086,282.000 175.782 C 282.000 175.477,281.646 175.039,281.214 174.807 C 280.781 174.576,280.233 173.667,279.997 172.788 C 279.685 171.631,279.156 170.923,278.083 170.227 C 277.267 169.697,275.924 168.648,275.097 167.895 C 270.563 163.760,267.690 163.193,249.946 162.924 L 235.292 162.703 235.026 160.346 C 234.879 159.050,234.878 156.507,235.024 154.695 C 235.845 144.501,229.721 131.345,222.000 126.717 C 221.230 126.255,220.420 125.673,220.200 125.423 C 219.748 124.909,215.918 123.060,214.400 122.624 C 213.850 122.466,212.828 122.079,212.130 121.763 C 209.197 120.441,202.809 120.063,196.251 120.824 M128.673 135.600 C 127.645 138.659,128.051 139.168,131.310 138.909 C 133.349 138.747,133.710 138.806,133.303 139.233 C 132.595 139.975,135.958 141.540,138.509 141.657 C 139.957 141.723,140.554 141.941,140.862 142.516 C 141.163 143.079,141.393 143.167,141.717 142.843 C 141.961 142.599,142.574 142.400,143.080 142.400 C 143.713 142.400,144.000 142.166,144.000 141.649 C 144.000 140.626,143.008 139.880,142.051 140.184 C 141.483 140.364,141.194 140.210,141.010 139.631 C 140.716 138.704,138.196 138.044,137.523 138.717 C 136.996 139.244,134.405 138.869,133.569 138.146 C 133.221 137.846,132.726 137.600,132.469 137.600 C 131.847 137.600,131.868 136.929,132.500 136.630 C 132.775 136.499,132.338 136.471,131.529 136.567 C 130.350 136.706,129.940 136.567,129.466 135.870 C 128.993 135.175,128.834 135.121,128.673 135.600 M274.800 137.182 C 274.800 137.392,274.168 137.682,273.396 137.827 C 272.623 137.972,271.874 138.295,271.731 138.545 C 271.589 138.795,271.600 138.886,271.756 138.747 C 271.912 138.607,272.661 138.633,273.420 138.805 C 274.197 138.980,274.800 138.959,274.800 138.758 C 274.800 138.561,274.980 138.400,275.200 138.400 C 275.420 138.400,275.600 138.706,275.600 139.080 C 275.600 139.584,275.716 139.644,276.051 139.309 C 276.650 138.710,276.149 136.800,275.392 136.800 C 275.067 136.800,274.800 136.972,274.800 137.182 M266.226 138.843 C 266.416 139.149,266.127 139.204,265.288 139.019 C 264.577 138.863,263.968 138.928,263.814 139.177 C 263.662 139.424,263.906 139.600,264.400 139.600 C 264.889 139.600,265.138 139.777,264.988 140.019 C 264.834 140.268,263.973 140.349,262.865 140.218 L 261.000 139.999 262.400 140.554 L 263.800 141.110 262.000 141.255 C 259.415 141.463,259.251 143.326,261.800 143.525 C 263.309 143.643,263.354 143.615,262.600 143.038 C 262.043 142.612,261.973 142.422,262.369 142.413 C 262.681 142.406,263.221 142.154,263.569 141.854 C 264.328 141.198,267.101 140.716,267.393 141.189 C 267.915 142.034,271.200 139.955,271.200 138.779 C 271.200 138.571,270.019 138.400,268.576 138.400 C 266.760 138.400,266.037 138.536,266.226 138.843 M159.463 144.572 C 159.098 146.426,158.800 148.820,158.800 149.892 C 158.800 152.757,158.712 152.792,151.420 152.861 L 145.000 152.921 149.856 153.210 C 152.527 153.369,154.940 153.639,155.218 153.811 C 155.547 154.014,155.624 153.962,155.438 153.662 C 155.243 153.346,155.598 153.200,156.560 153.200 C 158.693 153.200,160.700 150.860,159.552 149.712 C 159.226 149.386,159.221 148.740,159.534 147.332 C 160.069 144.925,160.534 141.200,160.300 141.200 C 160.204 141.200,159.827 142.717,159.463 144.572 M137.600 153.585 C 132.366 155.069,131.086 155.706,125.032 159.843 C 120.187 163.154,112.800 174.450,112.800 178.549 C 112.800 179.101,112.620 179.664,112.400 179.800 C 111.775 180.186,111.899 191.178,112.557 193.680 C 113.199 196.125,114.680 200.413,114.989 200.723 C 115.332 201.065,115.230 200.131,114.802 199.005 C 114.583 198.430,114.307 197.407,114.188 196.733 C 114.069 196.058,113.674 194.942,113.309 194.253 C 111.848 191.490,112.593 179.479,114.442 176.000 C 115.434 174.133,116.080 172.413,116.234 171.227 C 116.304 170.692,116.640 170.098,116.981 169.907 C 117.321 169.716,117.600 169.298,117.600 168.976 C 117.600 168.655,118.135 167.833,118.788 167.150 C 119.441 166.466,120.078 165.585,120.203 165.192 C 120.327 164.799,121.062 164.177,121.835 163.810 C 122.609 163.443,123.408 162.706,123.611 162.171 C 123.814 161.637,124.175 161.200,124.414 161.200 C 124.652 161.200,124.756 161.053,124.645 160.873 C 124.534 160.693,125.063 160.321,125.821 160.047 C 126.580 159.773,127.200 159.395,127.200 159.207 C 127.200 159.019,127.875 158.455,128.700 157.954 C 129.525 157.452,130.292 156.911,130.405 156.752 C 130.517 156.592,132.047 156.045,133.805 155.537 C 135.562 155.029,137.092 154.490,137.204 154.339 C 137.316 154.187,138.666 153.794,140.204 153.464 C 142.200 153.037,142.599 152.863,141.600 152.857 C 140.830 152.852,139.030 153.180,137.600 153.585 M293.796 179.400 C 294.394 185.625,294.449 188.219,294.045 191.219 C 293.798 193.054,293.456 194.655,293.285 194.778 C 293.114 194.900,292.731 195.972,292.434 197.161 C 291.596 200.520,290.111 203.081,287.647 205.417 C 287.123 205.913,286.673 206.653,286.647 207.060 C 286.578 208.141,285.537 209.442,284.472 209.778 C 283.962 209.940,283.227 210.595,282.838 211.234 C 282.449 211.874,282.008 212.275,281.859 212.126 C 281.710 211.977,281.006 212.388,280.294 213.041 C 278.215 214.946,275.446 216.699,274.844 216.490 C 274.506 216.372,274.398 216.473,274.568 216.748 C 274.740 217.026,274.540 217.200,274.047 217.200 C 273.607 217.200,273.136 217.380,273.000 217.600 C 272.864 217.820,272.408 218.000,271.986 218.000 C 271.564 218.000,270.630 218.359,269.910 218.799 C 268.173 219.857,268.631 219.807,271.881 218.584 C 282.759 214.490,289.882 206.963,293.635 195.600 C 295.116 191.114,295.413 182.727,294.215 179.200 L 293.604 177.400 293.796 179.400 M115.200 201.377 C 115.200 203.314,125.308 214.800,127.013 214.800 C 127.124 214.800,127.959 215.269,128.867 215.842 C 130.151 216.653,130.460 216.735,130.259 216.210 C 130.117 215.838,130.000 215.459,130.000 215.367 C 130.000 215.275,129.775 215.200,129.500 215.201 C 128.622 215.203,125.600 213.420,125.600 212.901 C 125.600 212.625,125.346 212.400,125.036 212.400 C 124.725 212.400,124.017 211.860,123.461 211.200 C 122.906 210.540,122.266 210.000,122.038 210.000 C 121.387 210.000,116.021 202.615,116.007 201.700 C 116.003 201.425,115.820 201.200,115.600 201.200 C 115.380 201.200,115.200 201.280,115.200 201.377 M131.800 217.349 C 135.156 218.833,135.913 219.114,137.202 219.354 L 138.600 219.614 137.100 218.964 C 136.275 218.607,135.600 218.143,135.600 217.934 C 135.600 217.724,135.439 217.652,135.242 217.774 C 135.046 217.895,134.242 217.726,133.455 217.397 C 131.655 216.645,130.106 216.600,131.800 217.349 M139.677 220.060 C 140.894 220.403,263.611 220.408,266.200 220.065 C 267.300 219.919,239.075 219.800,203.477 219.800 C 167.879 219.800,139.169 219.917,139.677 220.060 M167.363 231.464 C 154.584 245.426,153.167 247.673,155.436 250.369 C 157.715 253.078,159.771 252.145,164.620 246.200 C 166.727 243.617,171.966 237.631,173.547 236.000 C 177.130 232.303,176.583 228.587,172.387 228.124 L 170.600 227.927 167.363 231.464 M174.340 229.475 C 175.772 230.383,175.271 233.318,173.381 235.105 C 172.621 235.823,172.000 236.588,172.000 236.805 C 172.000 237.022,171.865 237.201,171.700 237.203 C 171.535 237.204,171.096 237.740,170.724 238.393 C 170.350 239.050,169.346 239.886,168.479 240.261 C 167.319 240.764,166.776 241.311,166.397 242.359 C 165.880 243.789,163.987 246.000,163.280 246.000 C 162.656 246.000,161.942 247.087,161.817 248.226 C 161.700 249.295,161.032 249.982,160.100 249.994 C 159.825 249.997,159.645 250.225,159.700 250.500 C 159.849 251.243,156.836 250.957,155.937 250.143 C 154.824 249.135,155.546 244.400,156.813 244.400 C 157.289 244.400,159.003 242.722,158.900 242.356 C 158.845 242.160,159.070 242.000,159.400 242.000 C 159.737 242.000,160.000 241.643,160.000 241.187 C 160.000 240.168,162.648 237.459,163.268 237.842 C 163.554 238.019,163.613 237.945,163.427 237.644 C 163.055 237.042,163.944 235.918,164.513 236.270 C 164.777 236.433,164.840 236.280,164.681 235.866 C 164.537 235.491,164.619 235.200,164.869 235.200 C 165.114 235.200,165.814 234.676,166.426 234.036 C 167.038 233.396,167.671 232.991,167.833 233.136 C 167.995 233.281,168.005 233.060,167.855 232.644 C 167.505 231.675,168.655 229.859,169.430 230.156 C 169.743 230.276,170.000 230.147,170.000 229.867 C 170.000 228.346,172.241 228.143,174.340 229.475 M204.300 240.229 C 203.695 240.557,203.200 240.957,203.200 241.117 C 203.200 241.277,202.795 241.862,202.300 242.417 C 201.805 242.972,200.423 244.590,199.229 246.013 C 198.035 247.436,196.560 249.140,195.951 249.800 C 188.098 258.309,187.074 260.296,189.304 262.700 C 190.971 264.497,194.524 263.657,196.315 261.042 C 197.402 259.456,200.274 256.053,202.765 253.400 C 209.860 245.843,211.086 243.853,210.152 241.418 C 209.531 239.800,206.301 239.143,204.300 240.229 M206.201 240.801 C 206.366 241.068,206.708 241.063,207.224 240.787 C 209.603 239.514,210.655 243.761,208.500 245.939 C 207.895 246.550,207.123 247.579,206.785 248.225 C 206.447 248.871,205.672 249.640,205.063 249.932 C 204.454 250.225,203.801 250.870,203.613 251.365 C 203.425 251.860,202.536 252.962,201.637 253.814 C 200.738 254.666,199.903 255.677,199.781 256.061 C 199.659 256.445,199.343 256.679,199.080 256.582 C 197.841 256.122,196.253 256.996,196.989 257.732 C 197.654 258.397,197.634 258.508,196.582 260.026 C 194.747 262.674,190.353 264.074,190.072 262.100 C 190.002 261.605,189.732 261.200,189.472 261.200 C 188.884 261.199,188.740 259.259,189.257 258.294 C 189.468 257.900,189.811 257.683,190.020 257.812 C 190.229 257.942,190.400 257.852,190.400 257.613 C 190.400 256.914,193.308 253.219,194.043 252.987 C 194.412 252.869,194.933 252.245,195.200 251.600 C 195.467 250.955,196.063 250.307,196.524 250.161 C 197.634 249.808,198.400 249.010,198.400 248.205 C 198.400 247.846,198.560 247.652,198.756 247.773 C 198.952 247.894,199.430 247.320,199.819 246.496 C 200.504 245.045,201.889 243.706,202.500 243.903 C 202.665 243.956,202.800 243.646,202.800 243.213 C 202.800 242.674,202.991 242.499,203.405 242.657 C 203.839 242.824,203.939 242.706,203.760 242.239 C 203.275 240.976,205.499 239.666,206.201 240.801 " stroke="none" fill="#ebf4fb" fill-rule="evenodd"></path><path id="path2" d="M105.400 61.089 C 86.692 63.723,72.975 76.358,67.932 95.600 L 67.041 99.000 66.911 187.812 C 66.840 236.659,66.920 277.588,67.091 278.765 C 67.261 279.942,67.400 256.987,67.400 227.753 C 67.400 151.464,67.765 99.001,68.312 96.800 C 69.722 91.126,70.497 88.989,72.518 85.200 C 73.750 82.890,75.127 80.615,75.579 80.144 C 76.031 79.673,76.400 79.088,76.400 78.844 C 76.400 78.600,76.580 78.400,76.800 78.400 C 77.020 78.400,77.200 78.183,77.200 77.918 C 77.200 77.470,80.312 74.373,83.600 71.547 C 84.370 70.886,85.720 69.728,86.600 68.974 C 87.480 68.220,88.403 67.603,88.651 67.602 C 88.899 67.601,89.302 67.359,89.546 67.065 C 89.791 66.770,90.758 66.303,91.695 66.026 C 92.633 65.749,94.390 65.010,95.600 64.383 C 101.255 61.455,97.696 61.544,202.800 61.701 L 296.600 61.841 299.800 62.744 C 301.560 63.241,303.403 63.747,303.895 63.869 C 304.388 63.992,304.705 64.230,304.600 64.400 C 304.496 64.569,305.173 64.912,306.105 65.163 C 311.727 66.672,324.864 77.733,326.229 82.106 C 326.382 82.598,326.619 83.090,326.754 83.200 C 328.179 84.359,331.514 93.288,332.281 98.000 C 332.407 98.770,332.622 135.490,332.760 179.600 L 333.011 259.800 333.000 178.400 L 332.989 97.000 331.958 93.400 C 327.168 76.673,313.443 64.418,296.116 61.397 C 292.873 60.831,109.334 60.535,105.400 61.089 M199.200 79.696 L 198.200 80.223 198.102 88.411 C 197.995 97.236,198.150 98.092,200.034 99.149 C 201.466 99.953,203.060 99.448,204.011 97.889 C 205.198 95.943,205.214 81.299,204.031 80.228 C 203.020 79.313,200.461 79.031,199.200 79.696 M203.536 81.019 C 204.431 82.984,204.154 96.646,203.200 97.600 C 202.218 98.582,200.678 98.630,199.605 97.711 C 198.630 96.877,198.339 81.421,199.280 80.480 C 200.228 79.532,203.019 79.885,203.536 81.019 M222.981 92.701 C 222.194 93.263,220.400 97.478,220.400 98.764 C 220.400 100.191,222.922 100.529,223.646 99.200 C 225.995 94.888,225.581 90.841,222.981 92.701 M178.811 93.176 C 178.141 93.610,178.648 96.178,179.920 98.800 C 180.990 101.004,183.015 100.871,182.964 98.600 C 182.888 95.133,180.536 92.061,178.811 93.176 M181.471 95.627 C 182.645 97.923,182.727 100.011,181.633 99.724 C 180.841 99.517,180.337 98.536,179.636 95.838 C 178.892 92.973,180.046 92.841,181.471 95.627 M224.585 93.975 C 224.712 94.182,224.344 95.532,223.766 96.975 C 222.781 99.436,221.995 100.163,221.386 99.178 C 221.086 98.692,222.029 95.200,222.460 95.200 C 222.618 95.200,222.860 94.840,223.000 94.400 C 223.264 93.569,224.181 93.323,224.585 93.975 M153.230 94.858 C 152.101 95.909,152.212 98.920,153.437 100.508 C 153.857 101.051,155.370 102.978,156.800 104.789 C 158.230 106.601,159.632 108.509,159.917 109.031 C 162.278 113.363,166.713 114.003,167.442 110.117 C 167.778 108.328,167.514 107.824,163.774 103.085 C 162.248 101.152,160.631 98.853,160.179 97.976 C 158.316 94.358,155.245 92.980,153.230 94.858 M245.841 94.839 C 245.255 95.300,243.225 97.826,241.330 100.451 C 239.436 103.076,237.687 105.354,237.443 105.512 C 235.705 106.642,235.266 109.941,236.636 111.569 C 238.924 114.289,240.957 112.847,246.743 104.400 C 247.270 103.630,247.820 102.910,247.964 102.800 C 248.877 102.104,250.800 98.339,250.800 97.247 C 250.800 94.554,247.958 93.174,245.841 94.839 M157.293 95.517 C 157.675 95.844,159.155 97.842,160.582 99.956 C 162.010 102.070,163.733 104.430,164.412 105.200 C 167.093 108.242,167.476 110.487,165.500 111.587 C 163.940 112.456,162.669 111.653,160.400 108.366 C 159.410 106.932,157.385 104.205,155.900 102.307 C 153.588 99.352,153.200 98.625,153.200 97.250 C 153.200 94.818,155.396 93.888,157.293 95.517 M249.600 95.600 C 251.088 97.088,251.072 97.121,244.827 105.711 C 240.318 111.912,238.893 112.926,237.216 111.125 C 236.090 109.917,236.194 108.788,237.597 106.959 C 238.256 106.102,239.245 104.770,239.796 104.000 C 240.347 103.230,241.203 102.041,241.699 101.359 C 242.194 100.676,243.130 99.326,243.778 98.359 C 246.295 94.602,247.860 93.860,249.600 95.600 M197.000 109.020 C 191.743 109.828,188.805 110.468,188.565 110.857 C 188.448 111.046,188.086 111.200,187.761 111.200 C 183.530 111.200,168.864 121.888,166.209 126.905 C 165.774 127.727,165.279 128.400,165.109 128.400 C 164.939 128.400,164.800 128.588,164.800 128.817 C 164.800 129.046,164.483 129.574,164.096 129.990 C 161.861 132.389,158.053 144.209,158.017 148.861 C 157.994 151.843,157.444 152.047,150.292 151.728 C 142.367 151.374,132.526 153.172,129.969 155.440 C 129.621 155.748,129.206 156.000,129.047 156.000 C 128.266 156.000,123.714 159.529,121.202 162.081 C 116.386 166.974,114.172 170.785,111.953 178.000 C 111.211 180.414,111.172 193.437,111.903 194.600 C 112.325 195.272,112.357 195.047,112.103 193.200 C 109.954 177.592,115.921 164.479,128.600 156.948 C 134.738 153.302,137.376 152.706,148.587 152.433 L 158.174 152.200 158.667 147.800 C 159.778 137.891,164.295 128.851,171.675 121.766 C 194.600 99.757,231.158 107.859,243.123 137.600 C 244.944 142.126,245.236 143.275,245.751 147.923 L 246.225 152.200 255.813 152.254 C 261.752 152.287,264.715 152.184,263.600 151.983 C 262.610 151.805,258.428 151.646,254.308 151.630 C 245.694 151.596,246.774 152.255,246.069 146.600 C 244.899 137.206,240.037 127.617,233.400 121.616 C 229.488 118.078,223.558 113.630,222.724 113.608 C 222.572 113.603,220.952 112.907,219.124 112.061 C 213.348 109.387,203.457 108.027,197.000 109.020 M144.424 120.268 C 142.910 121.329,145.136 123.864,148.555 124.972 C 151.450 125.911,152.702 124.513,150.661 122.621 C 148.264 120.400,145.646 119.412,144.424 120.268 M255.400 120.831 C 252.103 122.590,251.279 124.024,252.784 125.385 C 253.627 126.149,253.959 126.010,258.297 123.077 C 261.317 121.036,258.748 119.045,255.400 120.831 M148.600 121.930 C 150.116 122.976,151.000 124.800,149.990 124.800 C 149.233 124.800,145.200 122.252,145.200 121.773 C 145.200 120.456,146.553 120.518,148.600 121.930 M258.584 121.174 C 259.021 121.881,253.975 125.079,253.188 124.593 C 252.452 124.137,252.854 123.396,254.524 122.132 C 256.164 120.892,258.124 120.429,258.584 121.174 M126.378 134.738 C 124.255 136.457,125.488 139.571,128.748 140.725 C 140.563 144.906,143.865 145.621,145.130 144.274 C 147.214 142.056,145.727 138.867,142.200 137.988 C 141.320 137.769,138.170 136.781,135.200 135.792 C 129.263 133.816,127.741 133.634,126.378 134.738 M271.200 135.269 C 269.330 135.918,266.090 136.903,264.000 137.458 C 259.164 138.743,257.600 139.851,257.600 141.993 C 257.600 145.465,260.768 145.931,267.200 143.405 C 267.970 143.102,270.720 142.199,273.310 141.398 C 278.640 139.749,279.485 139.042,279.029 136.613 C 278.494 133.761,276.521 133.422,271.200 135.269 M133.444 135.959 C 136.060 136.816,139.190 137.818,140.400 138.185 C 145.012 139.585,146.111 140.585,145.366 142.704 C 144.740 144.484,143.370 144.670,139.545 143.495 C 137.705 142.930,134.354 141.903,132.099 141.213 C 127.022 139.661,125.776 138.722,126.149 136.729 C 126.381 135.497,127.323 134.551,128.444 134.427 C 128.578 134.412,130.828 135.101,133.444 135.959 M277.777 135.689 C 279.106 137.586,277.957 139.626,275.236 140.203 C 274.485 140.362,271.245 141.370,268.036 142.444 C 260.218 145.059,258.400 144.928,258.400 141.752 C 258.400 140.077,258.809 139.845,265.200 137.898 C 267.950 137.060,271.280 136.034,272.600 135.618 C 275.861 134.590,277.019 134.606,277.777 135.689 M269.200 153.238 C 283.193 156.825,293.794 169.146,295.324 183.600 C 295.443 184.727,295.484 184.623,295.536 183.067 C 295.674 178.896,291.700 168.595,288.800 165.609 C 288.470 165.269,287.505 164.140,286.656 163.101 C 282.627 158.168,272.130 152.315,267.525 152.434 C 266.539 152.460,266.967 152.665,269.200 153.238 M295.709 186.800 C 295.709 187.790,295.787 188.195,295.882 187.700 C 295.978 187.205,295.978 186.395,295.882 185.900 C 295.787 185.405,295.709 185.810,295.709 186.800 M295.007 191.086 C 293.208 205.479,280.198 218.556,265.844 220.397 L 263.000 220.762 265.800 220.597 C 269.744 220.364,274.481 218.766,278.518 216.306 C 282.014 214.176,287.600 209.484,287.600 208.677 C 287.600 208.435,288.127 207.690,288.772 207.019 C 291.891 203.773,297.409 188.800,295.485 188.800 C 295.379 188.800,295.164 189.829,295.007 191.086 M112.590 196.750 C 113.711 203.961,123.207 214.668,131.806 218.417 C 138.464 221.320,135.557 221.210,202.800 221.104 L 263.000 221.010 201.400 220.789 C 154.137 220.620,139.394 220.453,138.057 220.073 C 126.881 216.892,118.141 209.450,114.241 199.793 C 112.490 195.456,112.349 195.197,112.590 196.750 M170.920 227.066 C 170.436 227.167,168.546 228.904,166.720 230.925 C 164.894 232.946,163.297 234.690,163.171 234.800 C 163.045 234.910,162.070 236.080,161.005 237.400 C 159.940 238.720,158.860 239.980,158.604 240.200 C 157.783 240.907,154.524 244.971,154.054 245.874 C 152.557 248.752,154.726 252.411,157.919 252.395 C 160.134 252.383,160.862 251.778,166.260 245.461 C 169.297 241.908,172.720 238.005,173.867 236.789 C 178.672 231.693,176.890 225.814,170.920 227.066 M174.155 227.983 C 177.575 229.283,176.979 232.979,172.606 237.586 C 171.450 238.804,169.896 240.520,169.153 241.400 C 168.410 242.280,167.706 243.090,167.589 243.200 C 167.472 243.310,165.978 245.061,164.269 247.091 C 159.807 252.391,157.696 253.332,155.408 251.045 C 152.884 248.520,153.408 246.918,158.823 240.600 C 169.922 227.652,170.985 226.778,174.155 227.983 M205.312 238.960 C 203.491 239.582,203.326 239.744,198.803 245.361 C 198.254 246.043,197.624 246.794,197.403 247.032 C 197.181 247.270,195.830 248.790,194.400 250.411 C 192.970 252.033,191.038 254.193,190.107 255.213 C 186.934 258.690,186.575 261.621,189.083 263.594 C 191.642 265.607,194.555 264.446,198.143 259.981 C 199.568 258.208,202.256 255.102,204.116 253.079 C 209.855 246.836,211.946 243.812,211.104 242.971 C 211.007 242.874,210.722 243.471,210.470 244.297 C 210.163 245.306,208.049 248.008,204.044 252.511 C 200.762 256.203,197.474 260.022,196.738 260.998 C 193.183 265.717,186.251 264.202,187.983 259.085 C 188.412 257.815,188.838 257.278,193.760 251.800 C 195.144 250.260,197.942 247.020,199.978 244.600 C 205.177 238.421,208.140 237.452,210.242 241.244 C 210.595 241.881,210.776 241.989,210.786 241.570 C 210.823 239.895,207.380 238.254,205.312 238.960 M333.182 266.300 C 332.978 278.664,332.413 282.934,330.101 289.571 C 329.953 289.996,330.015 290.070,330.292 289.800 C 330.729 289.373,332.051 285.379,332.749 282.375 C 333.234 280.290,333.861 265.200,333.462 265.200 C 333.318 265.200,333.192 265.695,333.182 266.300 M68.208 284.200 C 68.387 285.782,69.945 290.264,69.981 289.302 C 69.992 289.027,69.652 287.767,69.227 286.502 C 68.802 285.236,68.358 283.840,68.240 283.400 C 68.123 282.960,68.108 283.320,68.208 284.200 M70.268 290.706 C 70.394 291.205,70.655 291.710,70.848 291.830 C 71.396 292.168,71.262 291.436,70.620 290.576 C 70.060 289.827,70.048 289.832,70.268 290.706 M328.829 292.552 C 327.246 295.893,323.693 301.080,321.058 303.900 C 320.390 304.615,319.992 305.200,320.175 305.200 C 321.366 305.200,328.003 295.939,329.573 292.087 C 330.433 289.976,329.889 290.316,328.829 292.552 M71.219 292.700 C 71.230 292.865,71.833 294.054,72.559 295.342 C 78.281 305.484,87.997 313.387,98.979 316.830 C 103.008 318.094,102.869 317.649,98.800 316.260 C 87.937 312.551,78.573 304.984,73.357 295.700 C 71.616 292.601,71.173 291.980,71.219 292.700 M317.128 307.525 C 315.879 308.556,314.844 309.547,314.828 309.727 C 314.799 310.059,319.487 306.507,319.849 305.921 C 320.330 305.143,319.228 305.792,317.128 307.525 M310.881 312.009 C 307.786 314.074,303.114 316.056,298.810 317.131 C 296.447 317.721,287.149 317.803,200.400 317.994 L 104.600 318.205 199.600 318.302 C 299.035 318.405,296.172 318.446,301.466 316.810 C 305.721 315.495,311.049 312.865,313.600 310.820 C 315.454 309.333,313.822 310.047,310.881 312.009 " stroke="none" fill="#a4d0f4" fill-rule="evenodd"></path><path id="path3" d="M197.000 110.360 C 195.240 110.513,193.407 110.855,192.926 111.119 C 192.446 111.384,191.700 111.600,191.269 111.600 C 190.838 111.600,190.376 111.884,190.243 112.232 C 190.065 112.696,189.694 112.796,188.850 112.611 C 188.096 112.445,187.502 112.555,187.127 112.930 C 186.812 113.245,185.978 113.629,185.274 113.784 C 184.569 113.939,184.095 114.230,184.220 114.433 C 184.345 114.635,184.165 114.800,183.819 114.800 C 182.836 114.800,179.623 116.545,179.611 117.086 C 179.598 117.674,178.122 118.523,177.635 118.222 C 177.444 118.104,176.996 118.452,176.639 118.997 C 176.282 119.542,175.534 120.102,174.978 120.241 C 174.421 120.381,174.032 120.695,174.113 120.939 C 174.194 121.183,174.110 121.567,173.926 121.791 C 173.742 122.016,173.209 122.710,172.741 123.332 C 172.185 124.074,171.638 124.399,171.159 124.273 C 170.684 124.149,170.344 124.348,170.187 124.841 C 170.054 125.258,169.733 125.606,169.473 125.613 C 168.675 125.634,167.529 127.547,167.802 128.405 C 167.985 128.982,167.900 129.136,167.486 128.978 C 167.097 128.828,166.555 129.509,165.762 131.143 C 165.125 132.454,164.494 133.458,164.359 133.375 C 164.120 133.227,163.644 134.118,162.207 137.400 C 161.822 138.280,161.278 139.450,160.998 140.000 C 160.719 140.550,160.371 141.990,160.227 143.200 C 160.082 144.410,159.770 146.270,159.534 147.332 C 159.221 148.740,159.226 149.386,159.552 149.712 C 160.700 150.860,158.693 153.200,156.560 153.200 C 155.598 153.200,155.243 153.346,155.438 153.662 C 155.617 153.952,155.548 154.015,155.251 153.832 C 153.310 152.632,138.154 153.062,137.201 154.344 C 137.090 154.492,135.562 155.029,133.805 155.537 C 132.047 156.045,130.517 156.592,130.405 156.752 C 130.292 156.911,129.525 157.452,128.700 157.954 C 127.875 158.455,127.200 159.019,127.200 159.207 C 127.200 159.395,126.580 159.773,125.821 160.047 C 125.063 160.321,124.534 160.693,124.645 160.873 C 124.756 161.053,124.652 161.200,124.414 161.200 C 124.175 161.200,123.814 161.637,123.611 162.171 C 123.408 162.706,122.609 163.443,121.835 163.810 C 121.062 164.177,120.327 164.799,120.203 165.192 C 120.078 165.585,119.441 166.466,118.788 167.150 C 118.135 167.833,117.600 168.655,117.600 168.976 C 117.600 169.298,117.321 169.716,116.981 169.907 C 116.640 170.098,116.304 170.692,116.234 171.227 C 116.080 172.413,115.434 174.133,114.442 176.000 C 112.582 179.499,111.848 191.490,113.322 194.279 C 113.694 194.982,114.054 195.882,114.122 196.279 C 114.464 198.268,115.389 201.200,115.676 201.200 C 115.854 201.200,116.003 201.425,116.007 201.700 C 116.021 202.615,121.387 210.000,122.038 210.000 C 122.266 210.000,122.906 210.540,123.461 211.200 C 124.017 211.860,124.725 212.400,125.036 212.400 C 125.346 212.400,125.600 212.625,125.600 212.901 C 125.600 213.412,128.616 215.203,129.473 215.201 C 129.733 215.200,130.047 215.519,130.171 215.909 C 130.375 216.553,132.916 217.518,134.900 217.705 C 135.285 217.742,135.600 217.898,135.600 218.053 C 135.600 219.802,135.522 219.800,203.800 219.800 L 268.200 219.800 269.723 218.900 C 270.560 218.405,271.585 218.000,271.999 218.000 C 272.414 218.000,272.864 217.820,273.000 217.600 C 273.136 217.380,273.607 217.200,274.047 217.200 C 274.540 217.200,274.740 217.026,274.568 216.748 C 274.398 216.473,274.506 216.372,274.844 216.490 C 275.446 216.699,278.215 214.946,280.294 213.041 C 281.006 212.388,281.710 211.977,281.859 212.126 C 282.008 212.275,282.449 211.874,282.838 211.234 C 283.227 210.595,283.962 209.940,284.472 209.778 C 285.537 209.442,286.578 208.141,286.647 207.060 C 286.673 206.653,287.123 205.913,287.647 205.417 C 290.111 203.081,291.596 200.520,292.434 197.161 C 292.731 195.972,293.114 194.900,293.285 194.778 C 294.826 193.676,294.469 179.864,292.805 176.200 C 290.128 170.304,289.127 168.393,288.474 167.928 C 288.066 167.638,287.228 166.635,286.613 165.700 C 285.997 164.765,285.346 164.000,285.165 164.000 C 284.547 164.000,281.990 162.070,282.418 161.927 C 283.070 161.710,282.407 160.400,281.646 160.400 C 280.692 160.400,279.139 159.223,279.443 158.730 C 279.610 158.460,279.381 158.416,278.790 158.603 C 278.074 158.831,277.929 158.763,278.112 158.286 C 278.260 157.900,278.064 157.605,277.572 157.477 C 277.145 157.365,276.787 157.481,276.772 157.737 C 276.756 157.992,276.614 157.872,276.456 157.470 C 276.298 157.069,275.996 156.739,275.784 156.737 C 275.573 156.735,274.590 156.317,273.600 155.808 C 271.113 154.529,267.992 153.565,266.365 153.573 C 261.866 153.596,247.251 153.167,246.486 152.989 C 245.311 152.717,244.685 151.124,244.762 148.600 C 244.796 147.459,244.560 146.108,244.211 145.454 C 243.875 144.824,243.600 143.399,243.600 142.288 C 243.600 141.176,243.482 140.385,243.337 140.530 C 242.815 141.052,242.008 139.907,242.242 138.976 C 242.647 137.361,238.488 129.400,237.239 129.400 C 237.107 129.400,237.045 129.265,237.100 129.100 C 237.155 128.935,237.020 128.800,236.800 128.800 C 236.580 128.800,236.400 128.452,236.400 128.028 C 236.400 127.030,234.750 124.439,234.100 124.417 C 233.825 124.408,233.600 124.220,233.600 124.000 C 233.600 123.780,233.268 123.600,232.862 123.600 C 231.786 123.600,230.722 122.272,231.065 121.358 C 231.317 120.688,231.271 120.664,230.675 121.149 C 230.082 121.631,230.000 121.597,230.000 120.866 C 230.000 120.295,229.404 119.687,228.100 118.928 C 227.055 118.320,225.442 117.249,224.515 116.547 C 223.589 115.845,222.239 115.140,221.515 114.981 C 220.792 114.823,219.965 114.357,219.678 113.947 C 219.242 113.325,216.169 112.425,215.645 112.767 C 215.559 112.823,215.379 112.705,215.245 112.506 C 214.173 110.921,204.138 109.740,197.000 110.360 M208.775 120.795 C 209.921 121.013,211.431 121.448,212.130 121.763 C 212.828 122.079,213.850 122.466,214.400 122.624 C 215.918 123.060,219.748 124.909,220.200 125.423 C 220.420 125.673,221.230 126.255,222.000 126.717 C 229.721 131.345,235.845 144.501,235.024 154.695 C 234.878 156.507,234.879 159.050,235.026 160.346 L 235.292 162.703 249.946 162.924 C 267.690 163.193,270.563 163.760,275.097 167.895 C 275.924 168.648,277.267 169.697,278.083 170.227 C 279.156 170.923,279.685 171.631,279.997 172.788 C 280.233 173.667,280.781 174.576,281.214 174.807 C 281.646 175.039,282.000 175.477,282.000 175.782 C 282.000 176.086,282.252 176.845,282.560 177.468 C 285.264 182.935,284.622 192.961,281.246 197.994 C 280.875 198.547,280.334 199.450,280.045 200.000 C 279.478 201.077,274.531 205.570,272.486 206.864 C 270.135 208.353,267.005 209.208,262.400 209.620 C 255.753 210.214,140.884 209.960,139.800 209.349 C 139.360 209.101,138.370 208.609,137.600 208.255 C 131.044 205.248,124.800 199.360,124.800 196.183 C 124.800 195.731,124.647 195.189,124.460 194.980 C 120.505 190.557,123.077 175.477,128.600 170.711 C 129.040 170.332,129.850 169.595,130.400 169.075 C 132.537 167.053,135.534 165.253,138.600 164.151 L 141.800 163.000 155.535 162.931 C 163.090 162.894,169.389 162.744,169.534 162.599 C 169.679 162.454,169.742 160.055,169.674 157.268 C 169.456 148.391,170.067 144.206,172.214 139.886 C 174.288 135.711,176.323 132.400,176.815 132.400 C 176.997 132.400,177.261 132.038,177.401 131.596 C 177.542 131.153,178.171 130.525,178.800 130.200 C 179.429 129.875,180.048 129.292,180.177 128.904 C 180.305 128.517,181.488 127.514,182.805 126.675 C 184.122 125.836,185.200 124.981,185.200 124.775 C 185.200 124.569,185.372 124.400,185.582 124.400 C 185.792 124.400,187.097 123.880,188.482 123.245 C 189.867 122.609,191.563 121.877,192.251 121.616 C 195.037 120.563,204.953 120.070,208.775 120.795 M170.492 228.868 C 170.221 229.139,170.000 229.588,170.000 229.867 C 170.000 230.147,169.743 230.276,169.430 230.156 C 168.655 229.859,167.505 231.675,167.855 232.644 C 168.005 233.060,167.995 233.281,167.833 233.136 C 167.671 232.991,167.038 233.396,166.426 234.036 C 165.814 234.676,165.114 235.200,164.869 235.200 C 164.619 235.200,164.537 235.491,164.681 235.866 C 164.840 236.280,164.777 236.433,164.513 236.270 C 163.944 235.918,163.055 237.042,163.427 237.644 C 163.613 237.945,163.554 238.019,163.268 237.842 C 162.648 237.459,160.000 240.168,160.000 241.187 C 160.000 241.643,159.737 242.000,159.400 242.000 C 159.070 242.000,158.845 242.160,158.900 242.356 C 159.003 242.722,157.289 244.400,156.813 244.400 C 155.546 244.400,154.824 249.135,155.937 250.143 C 156.836 250.957,159.849 251.243,159.700 250.500 C 159.645 250.225,159.825 249.997,160.100 249.994 C 161.032 249.982,161.700 249.295,161.817 248.226 C 161.942 247.087,162.656 246.000,163.280 246.000 C 163.987 246.000,165.880 243.789,166.397 242.359 C 166.776 241.311,167.319 240.764,168.479 240.261 C 169.346 239.886,170.350 239.050,170.724 238.393 C 171.096 237.740,171.535 237.204,171.700 237.203 C 171.865 237.201,172.000 237.022,172.000 236.805 C 172.000 236.588,172.621 235.823,173.381 235.105 C 175.271 233.318,175.772 230.383,174.340 229.475 C 172.944 228.589,171.066 228.294,170.492 228.868 M204.004 240.995 C 203.733 241.322,203.623 241.882,203.760 242.239 C 203.939 242.706,203.839 242.824,203.405 242.657 C 202.991 242.499,202.800 242.674,202.800 243.213 C 202.800 243.646,202.665 243.956,202.500 243.903 C 201.889 243.706,200.504 245.045,199.819 246.496 C 199.430 247.320,198.952 247.894,198.756 247.773 C 198.560 247.652,198.400 247.846,198.400 248.205 C 198.400 249.010,197.634 249.808,196.524 250.161 C 196.063 250.307,195.467 250.955,195.200 251.600 C 194.933 252.245,194.412 252.869,194.043 252.987 C 193.308 253.219,190.400 256.914,190.400 257.613 C 190.400 257.852,190.229 257.942,190.020 257.812 C 189.811 257.683,189.468 257.900,189.257 258.294 C 188.740 259.259,188.884 261.199,189.472 261.200 C 189.732 261.200,190.002 261.605,190.072 262.100 C 190.353 264.074,194.747 262.674,196.582 260.026 C 197.634 258.508,197.654 258.397,196.989 257.732 C 196.253 256.996,197.841 256.122,199.080 256.582 C 199.343 256.679,199.659 256.445,199.781 256.061 C 199.903 255.677,200.738 254.666,201.637 253.814 C 202.536 252.962,203.425 251.860,203.613 251.365 C 203.801 250.870,204.454 250.225,205.063 249.932 C 205.672 249.640,206.447 248.871,206.785 248.225 C 207.123 247.579,207.895 246.550,208.500 245.939 C 210.655 243.761,209.603 239.514,207.224 240.787 C 206.708 241.063,206.366 241.068,206.201 240.801 C 205.832 240.204,204.568 240.316,204.004 240.995 " stroke="none" fill="#fcfbfb" fill-rule="evenodd"></path><path id="path4" d="M105.062 60.700 C 104.960 60.865,147.873 61.000,200.423 61.000 C 252.974 61.000,295.662 60.878,295.285 60.728 C 294.343 60.354,105.293 60.326,105.062 60.700 M98.582 61.989 C 97.033 62.375,95.413 62.875,94.982 63.101 C 94.552 63.327,93.480 63.828,92.600 64.214 C 91.720 64.601,90.730 65.076,90.400 65.270 C 90.070 65.464,89.485 65.729,89.100 65.858 C 88.715 65.988,88.400 66.252,88.400 66.447 C 88.400 66.641,88.221 66.800,88.001 66.800 C 86.667 66.800,76.996 75.300,75.860 77.471 C 75.535 78.092,74.714 79.217,74.035 79.972 C 73.356 80.727,72.800 81.537,72.800 81.773 C 72.800 82.009,72.170 83.089,71.400 84.172 C 70.630 85.255,70.000 86.465,70.000 86.861 C 70.000 87.258,69.550 88.777,69.000 90.238 C 68.450 91.700,68.000 93.288,68.000 93.768 C 68.000 94.247,67.824 94.816,67.610 95.030 C 66.958 95.682,66.403 104.148,66.472 112.400 L 66.537 120.200 66.821 109.800 C 67.184 96.493,68.231 91.530,72.248 84.064 C 78.122 73.148,88.980 64.692,100.552 62.022 C 102.339 61.609,103.260 61.276,102.600 61.280 C 101.940 61.284,100.132 61.603,98.582 61.989 M298.600 61.841 C 307.503 63.969,315.201 68.363,321.404 74.855 C 326.554 80.246,330.408 87.225,331.995 94.035 C 333.110 98.818,333.251 99.143,332.966 96.265 C 332.727 93.859,331.412 89.292,330.766 88.620 C 330.565 88.411,330.400 87.921,330.400 87.531 C 330.400 87.141,329.946 86.052,329.391 85.111 C 328.836 84.170,328.071 82.770,327.691 82.000 C 327.311 81.230,326.906 80.510,326.791 80.400 C 326.676 80.290,326.264 79.702,325.877 79.093 C 323.804 75.836,314.226 67.340,311.113 65.996 C 310.611 65.779,309.930 65.449,309.600 65.263 C 308.131 64.434,307.094 63.958,305.505 63.383 C 302.647 62.348,298.258 61.217,297.200 61.243 C 296.650 61.256,297.280 61.525,298.600 61.841 M199.280 80.480 C 198.339 81.421,198.630 96.877,199.605 97.711 C 200.678 98.630,202.218 98.582,203.200 97.600 C 204.154 96.646,204.431 82.984,203.536 81.019 C 203.019 79.885,200.228 79.532,199.280 80.480 M203.109 81.360 C 203.536 82.297,203.405 82.800,202.733 82.800 C 202.550 82.800,202.400 82.350,202.400 81.800 C 202.400 81.178,202.173 80.800,201.800 80.800 C 201.055 80.800,201.049 80.734,201.948 82.498 C 202.540 83.659,202.655 84.539,202.499 86.717 C 202.389 88.244,202.484 89.810,202.711 90.235 C 203.611 91.915,203.749 94.768,202.945 95.073 C 202.535 95.228,201.954 95.598,201.654 95.895 C 200.399 97.136,200.200 96.228,200.200 89.266 C 200.200 85.490,200.069 82.400,199.909 82.400 C 199.748 82.400,199.822 81.950,200.073 81.400 C 200.693 80.039,202.496 80.015,203.109 81.360 M179.452 93.916 C 179.222 94.287,179.733 96.605,180.454 98.462 C 181.095 100.116,182.403 100.251,182.389 98.663 C 182.369 96.445,180.127 92.823,179.452 93.916 M223.000 94.400 C 222.860 94.840,222.618 95.200,222.460 95.200 C 222.029 95.200,221.086 98.692,221.386 99.178 C 221.995 100.163,222.781 99.436,223.766 96.975 C 224.344 95.532,224.712 94.182,224.585 93.975 C 224.181 93.323,223.264 93.569,223.000 94.400 M154.300 95.094 C 152.241 96.123,152.707 98.225,155.900 102.307 C 157.385 104.205,159.410 106.932,160.400 108.366 C 162.669 111.653,163.940 112.456,165.500 111.587 C 167.476 110.487,167.093 108.242,164.412 105.200 C 163.733 104.430,162.010 102.070,160.582 99.956 C 157.031 94.697,156.271 94.109,154.300 95.094 M245.748 95.700 C 245.312 96.195,244.426 97.391,243.778 98.359 C 243.130 99.326,242.194 100.676,241.699 101.359 C 241.203 102.041,240.347 103.230,239.796 104.000 C 239.245 104.770,238.256 106.102,237.597 106.959 C 236.194 108.788,236.090 109.917,237.216 111.125 C 238.893 112.926,240.318 111.912,244.827 105.711 C 251.072 97.121,251.088 97.088,249.600 95.600 C 248.527 94.527,246.739 94.574,245.748 95.700 M157.380 96.842 C 157.617 97.066,157.590 97.200,157.308 97.200 C 157.059 97.200,156.798 97.605,156.728 98.100 C 156.572 99.198,155.848 99.141,155.672 98.016 C 155.595 97.521,155.241 97.200,154.772 97.200 C 153.991 97.200,153.766 96.767,154.281 96.253 C 154.618 95.915,156.845 96.339,157.380 96.842 M248.769 97.100 C 248.477 97.485,248.043 97.980,247.802 98.200 C 247.153 98.795,245.605 101.921,245.568 102.712 C 245.549 103.130,245.458 103.203,245.335 102.900 C 245.017 102.111,244.400 102.317,244.400 103.213 C 244.400 103.659,244.130 104.129,243.800 104.255 C 243.470 104.382,243.200 104.736,243.200 105.043 C 243.200 105.349,242.840 105.600,242.400 105.600 C 241.813 105.600,241.600 105.867,241.600 106.600 C 241.600 107.322,241.385 107.600,240.827 107.600 C 240.280 107.600,240.016 107.923,239.927 108.700 C 239.819 109.638,238.800 110.361,238.800 109.500 C 238.800 109.335,238.800 108.570,238.800 107.800 C 238.800 106.857,238.985 106.400,239.368 106.400 C 239.682 106.400,240.062 105.828,240.217 105.123 C 240.460 104.018,240.562 103.933,240.972 104.494 C 241.541 105.273,243.266 103.408,243.741 101.500 C 243.892 100.895,244.287 100.400,244.620 100.400 C 244.953 100.400,245.330 100.085,245.459 99.700 C 246.394 96.905,246.722 96.560,248.549 96.446 C 249.199 96.406,249.228 96.493,248.769 97.100 M159.100 99.995 C 159.385 99.998,159.600 100.504,159.600 101.171 C 159.600 101.944,159.940 102.610,160.600 103.129 C 161.150 103.561,161.600 104.223,161.600 104.600 C 161.600 105.042,161.811 105.205,162.194 105.058 C 162.539 104.925,162.958 105.147,163.194 105.589 C 163.783 106.689,163.700 106.919,162.800 106.684 C 161.853 106.436,161.322 107.082,161.955 107.715 C 162.200 107.960,162.400 108.430,162.400 108.760 C 162.400 110.148,161.131 108.128,158.592 102.700 C 158.258 101.985,157.674 100.963,157.295 100.428 C 156.614 99.467,156.618 99.459,157.603 99.723 C 158.152 99.869,158.825 99.992,159.100 99.995 M333.245 190.000 C 333.274 239.830,333.443 280.240,333.621 279.800 C 334.107 278.596,334.076 100.733,333.590 100.000 C 333.325 99.601,333.209 129.763,333.245 190.000 M164.400 108.800 C 164.400 109.244,164.133 109.600,163.800 109.600 C 163.077 109.600,163.027 109.133,163.680 108.480 C 164.326 107.834,164.400 107.868,164.400 108.800 M200.711 109.493 C 201.651 109.578,203.091 109.577,203.911 109.491 C 204.730 109.405,203.960 109.336,202.200 109.337 C 200.440 109.339,199.770 109.409,200.711 109.493 M195.900 109.882 C 196.395 109.978,197.205 109.978,197.700 109.882 C 198.195 109.787,197.790 109.709,196.800 109.709 C 195.810 109.709,195.405 109.787,195.900 109.882 M192.000 110.400 C 190.656 110.831,192.108 110.831,193.800 110.400 C 194.878 110.126,194.898 110.094,194.000 110.087 C 193.450 110.083,192.550 110.224,192.000 110.400 M210.800 110.400 C 211.350 110.576,212.160 110.720,212.600 110.720 C 213.233 110.720,213.192 110.654,212.400 110.400 C 211.850 110.224,211.040 110.080,210.600 110.080 C 209.967 110.080,210.008 110.146,210.800 110.400 M187.388 111.768 C 181.468 114.048,176.269 117.357,171.659 121.778 C 168.603 124.709,164.716 129.623,165.485 129.584 C 165.658 129.575,166.430 128.575,167.200 127.362 C 170.678 121.882,183.963 112.097,188.074 111.986 C 188.363 111.978,189.050 111.714,189.600 111.400 C 191.077 110.555,190.125 110.714,187.388 111.768 M215.986 111.802 C 217.408 112.330,218.627 112.706,218.695 112.638 C 218.904 112.429,214.734 110.799,214.047 110.821 C 213.691 110.832,214.564 111.274,215.986 111.802 M220.200 113.600 C 220.860 114.037,221.607 114.396,221.860 114.397 C 222.113 114.399,223.266 115.037,224.422 115.815 C 227.166 117.661,227.677 117.896,226.200 116.630 C 224.994 115.596,219.979 112.798,219.342 112.803 C 219.154 112.804,219.540 113.163,220.200 113.600 M227.600 117.706 C 227.600 117.794,228.365 118.474,229.300 119.217 C 230.235 119.960,230.746 120.252,230.436 119.865 C 229.851 119.137,227.600 117.423,227.600 117.706 M232.657 121.977 C 233.348 122.760,234.462 124.014,235.134 124.764 C 235.805 125.515,237.123 127.261,238.062 128.646 C 239.001 130.031,239.837 131.096,239.920 131.013 C 240.260 130.673,236.510 125.698,234.042 123.214 C 232.589 121.751,231.965 121.195,232.657 121.977 M145.467 121.067 C 144.851 121.682,145.320 122.285,147.363 123.507 C 149.910 125.031,150.501 125.112,150.328 123.917 C 150.112 122.426,146.327 120.207,145.467 121.067 M254.524 122.132 C 252.854 123.396,252.452 124.137,253.188 124.593 C 253.975 125.079,259.021 121.881,258.584 121.174 C 258.124 120.429,256.164 120.892,254.524 122.132 M66.581 145.000 C 66.581 153.360,66.634 156.837,66.699 152.726 C 66.764 148.616,66.764 141.776,66.700 137.526 C 66.635 133.277,66.582 136.640,66.581 145.000 M164.496 130.500 C 163.854 131.300,161.931 135.264,162.102 135.435 C 162.188 135.521,162.903 134.333,163.692 132.796 C 165.103 130.045,165.290 129.511,164.496 130.500 M240.013 131.677 C 240.006 131.830,240.358 132.562,240.796 133.304 C 241.234 134.046,241.953 135.702,242.394 136.983 C 242.835 138.265,243.354 139.513,243.546 139.756 C 243.873 140.170,244.352 141.944,245.177 145.800 C 245.420 146.933,245.531 147.103,245.560 146.384 C 245.624 144.757,244.506 140.901,242.762 136.739 C 241.304 133.258,240.046 130.943,240.013 131.677 M127.307 134.885 C 126.740 135.159,126.318 135.831,126.149 136.729 C 125.776 138.722,127.022 139.661,132.099 141.213 C 134.354 141.903,137.705 142.930,139.545 143.495 C 143.370 144.670,144.740 144.484,145.366 142.704 C 146.111 140.585,145.012 139.585,140.400 138.185 C 139.190 137.818,136.060 136.816,133.444 135.959 C 128.162 134.228,128.534 134.293,127.307 134.885 M272.600 135.618 C 271.280 136.034,267.950 137.060,265.200 137.898 C 258.809 139.845,258.400 140.077,258.400 141.752 C 258.400 144.928,260.218 145.059,268.036 142.444 C 271.245 141.370,274.485 140.362,275.236 140.203 C 277.957 139.626,279.106 137.586,277.777 135.689 C 277.019 134.606,275.861 134.590,272.600 135.618 M131.529 136.567 C 132.338 136.471,132.775 136.499,132.500 136.630 C 131.868 136.929,131.847 137.600,132.469 137.600 C 132.726 137.600,133.221 137.846,133.569 138.146 C 134.405 138.869,136.996 139.244,137.523 138.717 C 138.196 138.044,140.716 138.704,141.010 139.631 C 141.194 140.210,141.483 140.364,142.051 140.184 C 143.008 139.880,144.000 140.626,144.000 141.649 C 144.000 142.166,143.713 142.400,143.080 142.400 C 142.574 142.400,141.961 142.599,141.717 142.843 C 141.393 143.167,141.163 143.079,140.862 142.516 C 140.554 141.941,139.957 141.723,138.509 141.657 C 135.958 141.540,132.595 139.975,133.303 139.233 C 133.710 138.806,133.349 138.747,131.310 138.909 C 128.544 139.128,127.898 138.763,128.252 137.179 C 128.726 135.058,128.834 134.941,129.466 135.870 C 129.940 136.567,130.350 136.706,131.529 136.567 M276.243 137.829 C 276.389 138.411,276.305 139.055,276.051 139.309 C 275.716 139.644,275.600 139.584,275.600 139.080 C 275.600 138.706,275.420 138.400,275.200 138.400 C 274.980 138.400,274.800 138.561,274.800 138.758 C 274.800 138.959,274.197 138.980,273.420 138.805 C 272.661 138.633,271.912 138.607,271.756 138.747 C 271.600 138.886,271.589 138.795,271.731 138.545 C 271.874 138.295,272.623 137.972,273.396 137.827 C 274.168 137.682,274.800 137.392,274.800 137.182 C 274.800 136.332,276.003 136.872,276.243 137.829 M160.446 139.239 C 160.201 139.943,160.013 140.718,160.028 140.960 C 160.044 141.202,160.314 140.696,160.630 139.835 C 160.945 138.974,161.133 138.200,161.048 138.115 C 160.962 138.029,160.692 138.535,160.446 139.239 M271.200 138.779 C 271.200 139.955,267.915 142.034,267.393 141.189 C 267.101 140.716,264.328 141.198,263.569 141.854 C 263.221 142.154,262.681 142.406,262.369 142.413 C 261.973 142.422,262.043 142.612,262.600 143.038 C 263.354 143.615,263.309 143.643,261.800 143.525 C 259.251 143.326,259.415 141.463,262.000 141.255 L 263.800 141.110 262.400 140.554 L 261.000 139.999 262.865 140.218 C 263.973 140.349,264.834 140.268,264.988 140.019 C 265.138 139.777,264.889 139.600,264.400 139.600 C 263.906 139.600,263.662 139.424,263.814 139.177 C 263.968 138.928,264.577 138.863,265.288 139.019 C 266.127 139.204,266.416 139.149,266.226 138.843 C 266.037 138.536,266.760 138.400,268.576 138.400 C 270.019 138.400,271.200 138.571,271.200 138.779 M159.205 143.777 C 158.949 145.010,158.815 146.239,158.906 146.509 C 158.998 146.779,159.279 145.842,159.530 144.426 C 160.096 141.233,159.839 140.721,159.205 143.777 M158.384 150.000 L 158.200 152.200 148.533 152.400 C 143.215 152.510,138.775 152.690,138.665 152.800 C 138.555 152.910,142.816 152.943,148.133 152.873 C 159.115 152.730,158.925 152.786,158.709 149.761 L 158.569 147.800 158.384 150.000 M245.665 149.851 C 245.626 151.088,245.800 152.068,246.104 152.321 C 246.606 152.737,268.149 153.214,267.735 152.800 C 267.625 152.690,262.735 152.510,256.867 152.400 L 246.200 152.200 245.965 150.000 L 245.730 147.800 245.665 149.851 M134.843 154.005 C 132.761 154.754,131.368 155.566,133.000 155.080 C 135.198 154.425,138.128 153.254,137.600 153.242 C 137.270 153.235,136.029 153.578,134.843 154.005 M269.809 153.561 C 270.024 153.771,270.740 154.071,271.400 154.228 C 272.948 154.595,272.600 154.254,270.809 153.649 C 270.044 153.390,269.594 153.350,269.809 153.561 M272.800 154.581 C 272.800 154.785,276.364 156.410,276.751 156.382 C 277.067 156.359,273.504 154.442,273.100 154.418 C 272.935 154.408,272.800 154.482,272.800 154.581 M129.800 156.168 C 129.360 156.458,127.924 157.393,126.610 158.246 C 123.617 160.189,119.439 164.354,117.394 167.435 C 115.484 170.312,113.096 175.089,113.285 175.655 C 113.361 175.884,113.856 175.020,114.386 173.735 C 116.351 168.964,121.582 162.192,125.199 159.735 C 125.970 159.211,127.680 158.069,129.000 157.195 C 130.320 156.322,131.220 155.615,131.000 155.625 C 130.780 155.634,130.240 155.879,129.800 156.168 M280.349 158.663 C 282.474 160.454,287.714 165.659,288.943 167.200 C 290.022 168.553,290.039 168.559,289.467 167.391 C 288.658 165.742,283.449 160.493,281.000 158.860 C 279.286 157.717,279.193 157.689,280.349 158.663 M66.586 184.000 C 66.586 195.770,66.637 200.585,66.700 194.700 C 66.762 188.815,66.762 179.185,66.700 173.300 C 66.637 167.415,66.586 172.230,66.586 184.000 M290.008 168.850 C 289.993 169.313,292.090 172.843,292.272 172.661 C 292.371 172.562,291.904 171.608,291.234 170.541 C 290.563 169.473,290.012 168.712,290.008 168.850 M292.405 173.300 C 292.437 173.883,294.369 179.238,294.382 178.778 C 294.402 178.072,292.814 173.200,292.563 173.200 C 292.473 173.200,292.402 173.245,292.405 173.300 M112.454 178.067 C 112.425 178.434,112.284 179.064,112.141 179.467 C 111.941 180.033,111.995 180.096,112.375 179.746 C 112.646 179.497,112.787 178.867,112.688 178.346 C 112.590 177.826,112.484 177.700,112.454 178.067 M294.958 186.200 C 294.975 190.483,295.039 191.030,295.319 189.304 C 295.512 188.119,295.503 185.860,295.299 184.104 C 294.947 181.078,294.938 181.130,294.958 186.200 M111.751 186.400 C 111.751 188.930,111.816 189.965,111.896 188.700 C 111.975 187.435,111.975 185.365,111.896 184.100 C 111.816 182.835,111.751 183.870,111.751 186.400 M112.247 193.600 C 112.518 195.340,113.909 199.463,114.677 200.800 C 115.294 201.875,115.275 201.804,113.804 197.600 C 113.304 196.170,112.700 194.370,112.462 193.600 L 112.029 192.200 112.247 193.600 M293.496 195.896 C 292.891 197.785,292.476 199.409,292.573 199.506 C 292.670 199.603,293.233 198.127,293.826 196.226 C 294.419 194.325,294.834 192.701,294.749 192.616 C 294.664 192.531,294.100 194.007,293.496 195.896 M291.000 202.000 C 290.443 203.100,290.077 204.000,290.187 204.000 C 290.297 204.000,290.843 203.100,291.400 202.000 C 291.957 200.900,292.323 200.000,292.213 200.000 C 292.103 200.000,291.557 200.900,291.000 202.000 M115.800 203.200 C 116.141 203.860,116.511 204.400,116.621 204.400 C 116.731 204.400,116.541 203.860,116.200 203.200 C 115.859 202.540,115.489 202.000,115.379 202.000 C 115.269 202.000,115.459 202.540,115.800 203.200 M288.384 206.301 C 285.600 210.216,281.567 213.709,276.800 216.336 C 275.150 217.245,273.965 217.992,274.167 217.995 C 276.990 218.035,291.228 205.894,289.906 204.573 C 289.812 204.479,289.127 205.256,288.384 206.301 M118.075 206.667 C 120.318 209.827,126.400 215.492,126.400 214.420 C 126.400 214.189,126.243 214.000,126.050 214.000 C 125.347 214.000,120.552 209.397,118.895 207.131 C 117.958 205.849,117.092 204.800,116.971 204.800 C 116.849 204.800,117.346 205.640,118.075 206.667 M66.507 245.063 C 66.470 265.067,66.598 280.819,66.802 281.463 C 67.000 282.089,67.430 283.590,67.758 284.800 C 68.989 289.349,71.723 295.610,72.248 295.085 C 72.334 294.999,71.985 294.135,71.472 293.164 C 67.048 284.804,67.058 284.902,66.799 244.800 L 66.573 209.800 66.507 245.063 M126.800 214.980 C 126.800 215.333,132.045 218.088,132.276 217.857 C 132.405 217.728,132.045 217.445,131.475 217.228 C 130.905 217.012,129.714 216.377,128.827 215.817 C 127.231 214.809,126.800 214.632,126.800 214.980 M133.200 218.364 C 133.530 218.550,134.250 218.823,134.800 218.968 L 135.800 219.233 134.800 218.631 C 134.250 218.299,133.530 218.027,133.200 218.026 C 132.667 218.025,132.667 218.062,133.200 218.364 M136.600 219.600 C 137.040 219.789,137.760 219.938,138.200 219.932 C 138.843 219.923,138.804 219.857,138.000 219.600 C 136.632 219.162,135.581 219.162,136.600 219.600 M265.300 220.276 C 265.685 220.376,266.315 220.376,266.700 220.276 C 267.085 220.175,266.770 220.093,266.000 220.093 C 265.230 220.093,264.915 220.175,265.300 220.276 M171.900 220.700 C 188.675 220.758,216.125 220.758,232.900 220.700 C 249.675 220.642,235.950 220.595,202.400 220.595 C 168.850 220.595,155.125 220.642,171.900 220.700 M166.725 231.700 C 162.931 235.823,156.526 243.207,154.883 245.354 C 154.383 246.007,154.012 247.049,154.027 247.754 C 154.052 248.952,154.074 248.935,154.575 247.334 C 154.861 246.417,155.884 244.710,156.848 243.541 C 159.782 239.980,163.956 235.187,167.363 231.464 L 170.600 227.927 172.387 228.124 C 176.583 228.587,177.130 232.303,173.547 236.000 C 171.802 237.800,166.618 243.732,163.847 247.100 C 162.353 248.915,160.986 250.400,160.808 250.400 C 160.631 250.400,160.372 250.695,160.234 251.057 C 159.815 252.149,160.974 251.006,164.337 247.011 C 166.009 245.025,167.472 243.310,167.589 243.200 C 167.706 243.090,168.410 242.280,169.153 241.400 C 169.896 240.520,171.450 238.804,172.606 237.586 C 176.979 232.979,177.575 229.283,174.155 227.983 C 171.478 226.965,170.746 227.331,166.725 231.700 M204.300 239.829 C 202.817 240.634,202.890 240.981,204.380 240.210 C 205.029 239.875,206.028 239.600,206.600 239.600 C 207.172 239.600,208.171 239.875,208.820 240.210 C 209.469 240.546,210.000 240.731,210.000 240.621 C 210.000 239.465,205.996 238.909,204.300 239.829 M199.756 244.900 C 198.052 246.935,196.391 248.915,196.067 249.300 C 195.742 249.685,195.566 250.000,195.675 250.000 C 195.785 250.000,197.116 248.515,198.633 246.700 C 200.150 244.885,201.483 243.310,201.595 243.200 C 202.320 242.492,203.285 241.200,203.089 241.200 C 202.960 241.200,201.460 242.865,199.756 244.900 M208.666 246.702 C 207.822 247.746,205.739 250.130,204.037 252.000 C 199.671 256.798,198.346 258.346,196.847 260.400 L 195.533 262.200 197.066 260.424 C 197.910 259.448,201.089 255.848,204.131 252.424 C 208.948 247.004,210.739 244.796,210.314 244.802 C 210.251 244.802,209.510 245.657,208.666 246.702 M154.400 249.587 C 154.400 250.753,156.360 252.000,158.082 251.930 L 159.800 251.860 158.117 251.708 C 156.843 251.593,156.187 251.262,155.417 250.347 C 154.858 249.682,154.400 249.341,154.400 249.587 M192.941 252.658 C 191.873 253.900,190.419 255.565,189.709 256.358 C 187.351 258.990,187.257 262.522,189.521 263.391 C 190.012 263.580,189.962 263.409,189.325 262.722 C 187.451 260.703,187.897 258.983,191.303 255.105 C 194.693 251.247,195.374 250.400,195.090 250.400 C 194.975 250.400,194.008 251.416,192.941 252.658 M191.105 263.883 C 191.602 263.979,192.322 263.975,192.705 263.875 C 193.087 263.775,192.680 263.696,191.800 263.701 C 190.920 263.705,190.607 263.787,191.105 263.883 M332.625 282.700 C 332.334 284.354,330.846 289.169,330.430 289.800 C 330.285 290.020,329.928 290.902,329.636 291.759 C 326.231 301.764,313.489 313.095,301.466 316.810 C 296.188 318.442,298.882 318.399,199.800 318.428 C 147.660 318.444,105.360 318.600,105.800 318.776 C 106.775 319.166,291.972 318.980,296.316 318.585 C 298.012 318.430,299.580 318.167,299.800 317.999 C 300.020 317.831,301.153 317.493,302.317 317.247 C 303.482 317.002,305.281 316.351,306.314 315.800 C 307.348 315.250,308.630 314.800,309.163 314.800 C 309.697 314.800,310.022 314.689,309.886 314.552 C 309.513 314.180,315.191 310.000,316.069 310.000 C 316.346 310.000,324.000 302.399,324.000 302.124 C 324.000 302.009,324.507 301.259,325.126 300.458 C 326.786 298.307,329.375 294.003,329.971 292.400 C 330.257 291.630,330.813 290.280,331.206 289.400 C 332.195 287.183,332.748 285.288,333.051 283.081 C 333.357 280.851,333.006 280.537,332.625 282.700 M72.409 295.900 C 72.414 296.065,72.770 296.650,73.200 297.200 C 73.630 297.750,73.986 298.354,73.991 298.542 C 73.996 298.731,74.540 299.567,75.200 300.400 C 75.860 301.233,76.400 302.007,76.400 302.120 C 76.400 302.233,77.300 303.259,78.400 304.400 C 79.500 305.541,80.400 306.638,80.400 306.838 C 80.400 307.037,80.557 307.155,80.750 307.100 C 80.942 307.045,81.795 307.630,82.645 308.400 C 84.676 310.240,86.225 311.348,88.300 312.444 C 89.235 312.938,90.000 313.490,90.000 313.671 C 90.000 313.852,90.315 314.001,90.700 314.001 C 91.085 314.002,91.999 314.368,92.731 314.815 C 95.231 316.339,101.313 318.396,103.200 318.356 L 105.000 318.317 103.400 317.943 C 90.561 314.937,79.606 307.344,73.791 297.422 C 72.766 295.671,72.390 295.258,72.409 295.900 " stroke="none" fill="#c5eafb" fill-rule="evenodd"></path></g></svg>